<?xml version="1.0" encoding="UTF-8"?>
<!DOCTYPE svg PUBLIC "-//W3C//DTD SVG 1.1//EN" "http://www.w3.org/Graphics/SVG/1.1/DTD/svg11.dtd">
<svg xmlns="http://www.w3.org/2000/svg" version="1.1" width="512px" height="512px" style="shape-rendering:geometricPrecision; text-rendering:geometricPrecision; image-rendering:optimizeQuality; fill-rule:evenodd; clip-rule:evenodd" xmlns:xlink="http://www.w3.org/1999/xlink">
<g><path style="opacity:0.977" fill="#000000" d="M 511.5,136.5 C 511.5,199.5 511.5,262.5 511.5,325.5C 501.141,376.69 470.141,406.857 418.5,416C 343.167,416.333 267.833,416.667 192.5,417C 176.833,432.667 161.167,448.333 145.5,464C 137.949,468.903 130.616,468.569 123.5,463C 106.833,446.333 90.1667,429.667 73.5,413C 32.0535,398.396 7.38683,369.563 -0.5,326.5C -0.5,263.167 -0.5,199.833 -0.5,136.5C 9.32073,85.8462 39.6541,55.6795 90.5,46C 200.5,45.3333 310.5,45.3333 420.5,46C 471.346,55.6795 501.679,85.8462 511.5,136.5 Z M 104.5,75.5 C 205.167,75.3333 305.834,75.5 406.5,76C 443.958,78.4627 468.125,97.6294 479,133.5C 479.966,139.13 480.633,144.796 481,150.5C 481.667,204.167 481.667,257.833 481,311.5C 477.474,352.358 455.64,376.858 415.5,385C 337.833,385.333 260.167,385.667 182.5,386C 180.754,386.471 179.087,387.138 177.5,388C 163.653,402.014 149.653,415.847 135.5,429.5C 121.014,415.514 106.681,401.347 92.5,387C 86.0265,383.951 79.3598,381.284 72.5,379C 49.8644,367.573 36.031,349.406 31,324.5C 29.8827,293.519 29.3827,262.519 29.5,231.5C 29.3786,200.813 29.8786,170.147 31,139.5C 36.5843,110.583 53.0843,90.7492 80.5,80C 88.4974,77.7255 96.4974,76.2255 104.5,75.5 Z"/></g>
<g><path style="opacity:0.963" fill="#000000" d="M 158.5,188.5 C 223.168,188.333 287.834,188.5 352.5,189C 360.934,190.436 365.601,195.436 366.5,204C 365.822,211.326 362.155,216.326 355.5,219C 288.833,219.667 222.167,219.667 155.5,219C 148.845,216.326 145.178,211.326 144.5,204C 145.584,195.423 150.251,190.256 158.5,188.5 Z"/></g>
<g><path style="opacity:0.963" fill="#000000" d="M 158.5,241.5 C 223.168,241.333 287.834,241.5 352.5,242C 360.934,243.436 365.601,248.436 366.5,257C 365.822,264.326 362.155,269.326 355.5,272C 288.833,272.667 222.167,272.667 155.5,272C 148.845,269.326 145.178,264.326 144.5,257C 145.584,248.423 150.251,243.256 158.5,241.5 Z"/></g>
</svg>
